<svg width="125" height="31" viewBox="0 0 125 31" fill="none" xmlns="http://www.w3.org/2000/svg">
    <path d="M2.98023e-08 30V2H6.4V12.36C7.64 10.52 9.52 9.52 12.04 9.52C17.64 9.52 21.08 13.48 21.08 20C21.08 26.52 17.64 30.48 12.04 30.48C9.48 30.48 7.56 29.44 6.28 27.48L6.08 30H2.98023e-08ZM10.36 24.6C12.68 24.6 14.36 22.68 14.4 20C14.36 17.32 12.72 15.44 10.4 15.44C8.04 15.44 6.4 17.32 6.4 20C6.4 22.68 8.04 24.6 10.36 24.6ZM24.0234 30V10H30.0634L30.3034 12.52C31.6234 10.56 33.5834 9.52 35.9434 9.52C40.7834 9.52 43.3034 12.4 43.2634 18.56V30H36.8634V19.76C36.8634 16.76 35.7834 15.6 33.9834 15.52C31.6234 15.44 30.4234 16.8 30.4234 19.4V30H24.0234Z" fill="#F5F5F5"/>
    <path d="M53.1122 20.24C53.1122 23.24 54.1922 24.4 56.0322 24.48C58.3522 24.52 59.5522 23.2 59.5522 20.56V10H65.9522V30H59.9122L59.6722 27.48C58.3522 29.44 56.3922 30.48 54.0322 30.48C49.1922 30.48 46.6722 27.6 46.7122 21.44V10H53.1122V20.24ZM73.5209 7.52C71.6009 7.52 69.9209 5.88 69.9209 3.92C69.9209 2 71.6009 0.319998 73.5209 0.319998C75.4809 0.319998 77.1209 2 77.1209 3.92C77.1209 5.88 75.4809 7.52 73.5209 7.52ZM70.3209 30V10H76.7209V30H70.3209ZM87.2138 20.24C87.2138 23.24 88.2938 24.4 90.1338 24.48C92.4538 24.52 93.6538 23.2 93.6538 20.56V10H100.054V30H94.0138L93.7738 27.48C92.4538 29.44 90.4938 30.48 88.1338 30.48C83.2938 30.48 80.7738 27.6 80.8138 21.44V10H87.2138V20.24ZM102.423 30L109.943 19.64L102.943 10H110.503L113.423 14.44L116.343 10H123.903L116.943 19.68L124.383 30H116.783L113.463 24.84L110.063 30H102.423Z" fill="#F2184F"/>
</svg>
